<?xml version="1.0" encoding="UTF-8" standalone="no"?>
<!DOCTYPE svg PUBLIC "-//W3C//DTD SVG 1.1//EN"
 "http://www.w3.org/Graphics/SVG/1.1/DTD/svg11.dtd">
<!-- Generated by graphviz version 2.46.0 (20210118.1747)
 -->
<!-- Title: G Pages: 1 -->
<svg width="656pt" height="270pt"
 viewBox="0.00 0.00 656.00 270.00" xmlns="http://www.w3.org/2000/svg" xmlns:xlink="http://www.w3.org/1999/xlink">
<g id="graph0" class="graph" transform="scale(1 1) rotate(0) translate(4 266)">
<title>G</title>
<polygon fill="white" stroke="transparent" points="-4,4 -4,-266 652,-266 652,4 -4,4"/>
<!-- arset -->
<g id="node1" class="node">
<title>arset</title>
<polygon fill="none" stroke="black" points="11,-232 11,-255 69,-255 69,-232 11,-232"/>
<text text-anchor="start" x="20.5" y="-240" font-family="Times New Roman,serif" font-size="15.00">Name </text>
<polygon fill="none" stroke="black" points="71,-232 71,-255 140,-255 140,-232 71,-232"/>
<text text-anchor="start" x="88.5" y="-240" font-family="Times New Roman,serif" font-size="15.00">Type </text>
<polygon fill="none" stroke="black" points="142,-232 142,-255 224,-255 224,-232 142,-232"/>
<text text-anchor="start" x="145" y="-240" font-family="Times New Roman,serif" font-size="15.00">Type_Name </text>
<polygon fill="none" stroke="black" points="226,-232 226,-255 311,-255 311,-232 226,-232"/>
<text text-anchor="start" x="229" y="-240" font-family="Times New Roman,serif" font-size="15.00">Environment </text>
<polygon fill="none" stroke="black" points="313,-232 313,-255 637,-255 637,-232 313,-232"/>
<text text-anchor="start" x="455.5" y="-240" font-family="Times New Roman,serif" font-size="15.00">Value </text>
<polygon fill="none" stroke="black" points="11,-207 11,-230 69,-230 69,-207 11,-207"/>
<text text-anchor="start" x="34.5" y="-215" font-family="Times New Roman,serif" font-size="15.00">a </text>
<polygon fill="none" stroke="black" points="71,-207 71,-230 140,-230 140,-207 71,-207"/>
<text text-anchor="start" x="74" y="-215" font-family="Times New Roman,serif" font-size="15.00">INTEGER</text>
<polygon fill="none" stroke="black" points="142,-207 142,-230 224,-230 224,-207 142,-207"/>
<text text-anchor="start" x="171" y="-215" font-family="Times New Roman,serif" font-size="15.00">var </text>
<polygon fill="none" stroke="black" points="226,-207 226,-230 311,-230 311,-207 226,-207"/>
<text text-anchor="start" x="244" y="-215" font-family="Times New Roman,serif" font-size="15.00">Global$</text>
<polygon fill="none" stroke="black" points="313,-207 313,-230 637,-230 637,-207 313,-207"/>
<text text-anchor="start" x="469" y="-215" font-family="Times New Roman,serif" font-size="15.00">0 </text>
<polygon fill="none" stroke="black" points="11,-182 11,-205 69,-205 69,-182 11,-182"/>
<text text-anchor="start" x="34" y="-190" font-family="Times New Roman,serif" font-size="15.00">b </text>
<polygon fill="none" stroke="black" points="71,-182 71,-205 140,-205 140,-182 71,-182"/>
<text text-anchor="start" x="74" y="-190" font-family="Times New Roman,serif" font-size="15.00">INTEGER</text>
<polygon fill="none" stroke="black" points="142,-182 142,-205 224,-205 224,-182 142,-182"/>
<text text-anchor="start" x="171" y="-190" font-family="Times New Roman,serif" font-size="15.00">var </text>
<polygon fill="none" stroke="black" points="226,-182 226,-205 311,-205 311,-182 226,-182"/>
<text text-anchor="start" x="244" y="-190" font-family="Times New Roman,serif" font-size="15.00">Global$</text>
<polygon fill="none" stroke="black" points="313,-182 313,-205 637,-205 637,-182 313,-182"/>
<text text-anchor="start" x="469" y="-190" font-family="Times New Roman,serif" font-size="15.00">1 </text>
<polygon fill="none" stroke="black" points="11,-157 11,-180 69,-180 69,-157 11,-157"/>
<text text-anchor="start" x="34.5" y="-165" font-family="Times New Roman,serif" font-size="15.00">c </text>
<polygon fill="none" stroke="black" points="71,-157 71,-180 140,-180 140,-157 71,-157"/>
<text text-anchor="start" x="74" y="-165" font-family="Times New Roman,serif" font-size="15.00">INTEGER</text>
<polygon fill="none" stroke="black" points="142,-157 142,-180 224,-180 224,-157 142,-157"/>
<text text-anchor="start" x="171" y="-165" font-family="Times New Roman,serif" font-size="15.00">var </text>
<polygon fill="none" stroke="black" points="226,-157 226,-180 311,-180 311,-157 226,-157"/>
<text text-anchor="start" x="244" y="-165" font-family="Times New Roman,serif" font-size="15.00">Global$</text>
<polygon fill="none" stroke="black" points="313,-157 313,-180 637,-180 637,-157 313,-157"/>
<text text-anchor="start" x="469" y="-165" font-family="Times New Roman,serif" font-size="15.00">2 </text>
<polygon fill="none" stroke="black" points="11,-132 11,-155 69,-155 69,-132 11,-132"/>
<text text-anchor="start" x="27" y="-140" font-family="Times New Roman,serif" font-size="15.00">min </text>
<polygon fill="none" stroke="black" points="71,-132 71,-155 140,-155 140,-132 71,-132"/>
<text text-anchor="start" x="74" y="-140" font-family="Times New Roman,serif" font-size="15.00">INTEGER</text>
<polygon fill="none" stroke="black" points="142,-132 142,-155 224,-155 224,-132 142,-132"/>
<text text-anchor="start" x="171" y="-140" font-family="Times New Roman,serif" font-size="15.00">var </text>
<polygon fill="none" stroke="black" points="226,-132 226,-155 311,-155 311,-132 226,-132"/>
<text text-anchor="start" x="244" y="-140" font-family="Times New Roman,serif" font-size="15.00">Global$</text>
<polygon fill="none" stroke="black" points="313,-132 313,-155 637,-155 637,-132 313,-132"/>
<text text-anchor="start" x="450.5" y="-140" font-family="Times New Roman,serif" font-size="15.00">100000 </text>
<polygon fill="none" stroke="black" points="11,-107 11,-130 69,-130 69,-107 11,-107"/>
<text text-anchor="start" x="14" y="-115" font-family="Times New Roman,serif" font-size="15.00">findMin </text>
<polygon fill="none" stroke="black" points="71,-107 71,-130 140,-130 140,-107 71,-107"/>
<text text-anchor="start" x="87.5" y="-115" font-family="Times New Roman,serif" font-size="15.00">VOID</text>
<polygon fill="none" stroke="black" points="142,-107 142,-130 224,-130 224,-107 142,-107"/>
<text text-anchor="start" x="157" y="-115" font-family="Times New Roman,serif" font-size="15.00">function </text>
<polygon fill="none" stroke="black" points="226,-107 226,-130 311,-130 311,-107 226,-107"/>
<text text-anchor="start" x="244" y="-115" font-family="Times New Roman,serif" font-size="15.00">Global$</text>
<polygon fill="none" stroke="black" points="313,-107 313,-130 637,-130 637,-107 313,-107"/>
<text text-anchor="start" x="316" y="-115" font-family="Times New Roman,serif" font-size="15.00">_OLC2__Proyecto_1.Instructions.Functions.Function </text>
<polygon fill="none" stroke="black" points="11,-82 11,-105 69,-105 69,-82 11,-82"/>
<text text-anchor="start" x="34.5" y="-90" font-family="Times New Roman,serif" font-size="15.00">x </text>
<polygon fill="none" stroke="black" points="71,-82 71,-105 140,-105 140,-82 71,-82"/>
<text text-anchor="start" x="74" y="-90" font-family="Times New Roman,serif" font-size="15.00">INTEGER</text>
<polygon fill="none" stroke="black" points="142,-82 142,-105 224,-105 224,-82 142,-82"/>
<text text-anchor="start" x="171" y="-90" font-family="Times New Roman,serif" font-size="15.00">var </text>
<polygon fill="none" stroke="black" points="226,-82 226,-105 311,-105 311,-82 226,-82"/>
<text text-anchor="start" x="244.5" y="-90" font-family="Times New Roman,serif" font-size="15.00">findMin</text>
<polygon fill="none" stroke="black" points="313,-82 313,-105 637,-105 637,-82 313,-82"/>
<text text-anchor="start" x="469" y="-90" font-family="Times New Roman,serif" font-size="15.00">0 </text>
<polygon fill="none" stroke="black" points="11,-57 11,-80 69,-80 69,-57 11,-57"/>
<text text-anchor="start" x="34.5" y="-65" font-family="Times New Roman,serif" font-size="15.00">y </text>
<polygon fill="none" stroke="black" points="71,-57 71,-80 140,-80 140,-57 71,-57"/>
<text text-anchor="start" x="74" y="-65" font-family="Times New Roman,serif" font-size="15.00">INTEGER</text>
<polygon fill="none" stroke="black" points="142,-57 142,-80 224,-80 224,-57 142,-57"/>
<text text-anchor="start" x="171" y="-65" font-family="Times New Roman,serif" font-size="15.00">var </text>
<polygon fill="none" stroke="black" points="226,-57 226,-80 311,-80 311,-57 226,-57"/>
<text text-anchor="start" x="244.5" y="-65" font-family="Times New Roman,serif" font-size="15.00">findMin</text>
<polygon fill="none" stroke="black" points="313,-57 313,-80 637,-80 637,-57 313,-57"/>
<text text-anchor="start" x="469" y="-65" font-family="Times New Roman,serif" font-size="15.00">1 </text>
<polygon fill="none" stroke="black" points="11,-32 11,-55 69,-55 69,-32 11,-32"/>
<text text-anchor="start" x="35" y="-40" font-family="Times New Roman,serif" font-size="15.00">z </text>
<polygon fill="none" stroke="black" points="71,-32 71,-55 140,-55 140,-32 71,-32"/>
<text text-anchor="start" x="74" y="-40" font-family="Times New Roman,serif" font-size="15.00">INTEGER</text>
<polygon fill="none" stroke="black" points="142,-32 142,-55 224,-55 224,-32 142,-32"/>
<text text-anchor="start" x="171" y="-40" font-family="Times New Roman,serif" font-size="15.00">var </text>
<polygon fill="none" stroke="black" points="226,-32 226,-55 311,-55 311,-32 226,-32"/>
<text text-anchor="start" x="244.5" y="-40" font-family="Times New Roman,serif" font-size="15.00">findMin</text>
<polygon fill="none" stroke="black" points="313,-32 313,-55 637,-55 637,-32 313,-32"/>
<text text-anchor="start" x="469" y="-40" font-family="Times New Roman,serif" font-size="15.00">2 </text>
<polygon fill="none" stroke="black" points="11,-7 11,-30 69,-30 69,-7 11,-7"/>
<text text-anchor="start" x="32.5" y="-15" font-family="Times New Roman,serif" font-size="15.00">m </text>
<polygon fill="none" stroke="black" points="71,-7 71,-30 140,-30 140,-7 71,-7"/>
<text text-anchor="start" x="74" y="-15" font-family="Times New Roman,serif" font-size="15.00">INTEGER</text>
<polygon fill="none" stroke="black" points="142,-7 142,-30 224,-30 224,-7 142,-7"/>
<text text-anchor="start" x="171" y="-15" font-family="Times New Roman,serif" font-size="15.00">var </text>
<polygon fill="none" stroke="black" points="226,-7 226,-30 311,-30 311,-7 226,-7"/>
<text text-anchor="start" x="244.5" y="-15" font-family="Times New Roman,serif" font-size="15.00">findMin</text>
<polygon fill="none" stroke="black" points="313,-7 313,-30 637,-30 637,-7 313,-7"/>
<text text-anchor="start" x="450.5" y="-15" font-family="Times New Roman,serif" font-size="15.00">100000 </text>
<polygon fill="none" stroke="black" points="8,-4 8,-258 640,-258 640,-4 8,-4"/>
</g>
</g>
</svg>
