<?xml version="1.0" encoding="UTF-8" standalone="no"?>
<!DOCTYPE svg PUBLIC "-//W3C//DTD SVG 1.1//EN"
 "http://www.w3.org/Graphics/SVG/1.1/DTD/svg11.dtd">
<!-- Generated by graphviz version 2.46.0 (20210118.1747)
 -->
<!-- Title: G Pages: 1 -->
<svg width="380pt" height="195pt"
 viewBox="0.00 0.00 380.00 195.00" xmlns="http://www.w3.org/2000/svg" xmlns:xlink="http://www.w3.org/1999/xlink">
<g id="graph0" class="graph" transform="scale(1 1) rotate(0) translate(4 191)">
<title>G</title>
<polygon fill="white" stroke="transparent" points="-4,4 -4,-191 376,-191 376,4 -4,4"/>
<!-- arset -->
<g id="node1" class="node">
<title>arset</title>
<polygon fill="none" stroke="black" points="11,-156.5 11,-179.5 72,-179.5 72,-156.5 11,-156.5"/>
<text text-anchor="start" x="22" y="-164.5" font-family="Times New Roman,serif" font-size="15.00">Name </text>
<polygon fill="none" stroke="black" points="74,-156.5 74,-179.5 143,-179.5 143,-156.5 74,-156.5"/>
<text text-anchor="start" x="91.5" y="-164.5" font-family="Times New Roman,serif" font-size="15.00">Type </text>
<polygon fill="none" stroke="black" points="145,-156.5 145,-179.5 227,-179.5 227,-156.5 145,-156.5"/>
<text text-anchor="start" x="148" y="-164.5" font-family="Times New Roman,serif" font-size="15.00">Type_Name </text>
<polygon fill="none" stroke="black" points="229,-156.5 229,-179.5 314,-179.5 314,-156.5 229,-156.5"/>
<text text-anchor="start" x="232" y="-164.5" font-family="Times New Roman,serif" font-size="15.00">Environment </text>
<polygon fill="none" stroke="black" points="316,-156.5 316,-179.5 361,-179.5 361,-156.5 316,-156.5"/>
<text text-anchor="start" x="319" y="-164.5" font-family="Times New Roman,serif" font-size="15.00">Value </text>
<polygon fill="none" stroke="black" points="11,-131.5 11,-154.5 72,-154.5 72,-131.5 11,-131.5"/>
<text text-anchor="start" x="14" y="-139.5" font-family="Times New Roman,serif" font-size="15.00">compare </text>
<polygon fill="none" stroke="black" points="74,-131.5 74,-154.5 143,-154.5 143,-131.5 74,-131.5"/>
<text text-anchor="start" x="77" y="-139.5" font-family="Times New Roman,serif" font-size="15.00">INTEGER</text>
<polygon fill="none" stroke="black" points="145,-131.5 145,-154.5 227,-154.5 227,-131.5 145,-131.5"/>
<text text-anchor="start" x="174" y="-139.5" font-family="Times New Roman,serif" font-size="15.00">var </text>
<polygon fill="none" stroke="black" points="229,-131.5 229,-154.5 314,-154.5 314,-131.5 229,-131.5"/>
<text text-anchor="start" x="247" y="-139.5" font-family="Times New Roman,serif" font-size="15.00">Global$</text>
<polygon fill="none" stroke="black" points="316,-131.5 316,-154.5 361,-154.5 361,-131.5 316,-131.5"/>
<text text-anchor="start" x="329" y="-139.5" font-family="Times New Roman,serif" font-size="15.00">56 </text>
<polygon fill="none" stroke="black" points="11,-106.5 11,-129.5 72,-129.5 72,-106.5 11,-106.5"/>
<text text-anchor="start" x="29" y="-114.5" font-family="Times New Roman,serif" font-size="15.00">last </text>
<polygon fill="none" stroke="black" points="74,-106.5 74,-129.5 143,-129.5 143,-106.5 74,-106.5"/>
<text text-anchor="start" x="77" y="-114.5" font-family="Times New Roman,serif" font-size="15.00">INTEGER</text>
<polygon fill="none" stroke="black" points="145,-106.5 145,-129.5 227,-129.5 227,-106.5 145,-106.5"/>
<text text-anchor="start" x="174" y="-114.5" font-family="Times New Roman,serif" font-size="15.00">var </text>
<polygon fill="none" stroke="black" points="229,-106.5 229,-129.5 314,-129.5 314,-106.5 229,-106.5"/>
<text text-anchor="start" x="247" y="-114.5" font-family="Times New Roman,serif" font-size="15.00">Global$</text>
<polygon fill="none" stroke="black" points="316,-106.5 316,-129.5 361,-129.5 361,-106.5 316,-106.5"/>
<text text-anchor="start" x="332.5" y="-114.5" font-family="Times New Roman,serif" font-size="15.00">2 </text>
<polygon fill="none" stroke="black" points="11,-81.5 11,-104.5 72,-104.5 72,-81.5 11,-81.5"/>
<text text-anchor="start" x="23" y="-89.5" font-family="Times New Roman,serif" font-size="15.00">index </text>
<polygon fill="none" stroke="black" points="74,-81.5 74,-104.5 143,-104.5 143,-81.5 74,-81.5"/>
<text text-anchor="start" x="89.5" y="-89.5" font-family="Times New Roman,serif" font-size="15.00">REAL</text>
<polygon fill="none" stroke="black" points="145,-81.5 145,-104.5 227,-104.5 227,-81.5 145,-81.5"/>
<text text-anchor="start" x="174" y="-89.5" font-family="Times New Roman,serif" font-size="15.00">var </text>
<polygon fill="none" stroke="black" points="229,-81.5 229,-104.5 314,-104.5 314,-81.5 229,-81.5"/>
<text text-anchor="start" x="247" y="-89.5" font-family="Times New Roman,serif" font-size="15.00">Global$</text>
<polygon fill="none" stroke="black" points="316,-81.5 316,-104.5 361,-104.5 361,-81.5 316,-81.5"/>
<text text-anchor="start" x="332.5" y="-89.5" font-family="Times New Roman,serif" font-size="15.00">0 </text>
<polygon fill="none" stroke="black" points="11,-56.5 11,-79.5 72,-79.5 72,-56.5 11,-56.5"/>
<text text-anchor="start" x="37" y="-64.5" font-family="Times New Roman,serif" font-size="15.00">i </text>
<polygon fill="none" stroke="black" points="74,-56.5 74,-79.5 143,-79.5 143,-56.5 74,-56.5"/>
<text text-anchor="start" x="77" y="-64.5" font-family="Times New Roman,serif" font-size="15.00">INTEGER</text>
<polygon fill="none" stroke="black" points="145,-56.5 145,-79.5 227,-79.5 227,-56.5 145,-56.5"/>
<text text-anchor="start" x="174" y="-64.5" font-family="Times New Roman,serif" font-size="15.00">var </text>
<polygon fill="none" stroke="black" points="229,-56.5 229,-79.5 314,-79.5 314,-56.5 229,-56.5"/>
<text text-anchor="start" x="247" y="-64.5" font-family="Times New Roman,serif" font-size="15.00">Global$</text>
<polygon fill="none" stroke="black" points="316,-56.5 316,-79.5 361,-79.5 361,-56.5 316,-56.5"/>
<text text-anchor="start" x="332.5" y="-64.5" font-family="Times New Roman,serif" font-size="15.00">0 </text>
<polygon fill="none" stroke="black" points="11,-31.5 11,-54.5 72,-54.5 72,-31.5 11,-31.5"/>
<text text-anchor="start" x="24.5" y="-39.5" font-family="Times New Roman,serif" font-size="15.00">tabla </text>
<polygon fill="none" stroke="black" points="74,-31.5 74,-54.5 143,-54.5 143,-31.5 74,-31.5"/>
<text text-anchor="start" x="77" y="-39.5" font-family="Times New Roman,serif" font-size="15.00">INTEGER</text>
<polygon fill="none" stroke="black" points="145,-31.5 145,-54.5 227,-54.5 227,-31.5 145,-31.5"/>
<text text-anchor="start" x="174" y="-39.5" font-family="Times New Roman,serif" font-size="15.00">var </text>
<polygon fill="none" stroke="black" points="229,-31.5 229,-54.5 314,-54.5 314,-31.5 229,-31.5"/>
<text text-anchor="start" x="247" y="-39.5" font-family="Times New Roman,serif" font-size="15.00">Global$</text>
<polygon fill="none" stroke="black" points="316,-31.5 316,-54.5 361,-54.5 361,-31.5 316,-31.5"/>
<text text-anchor="start" x="332.5" y="-39.5" font-family="Times New Roman,serif" font-size="15.00">0 </text>
<polygon fill="none" stroke="black" points="11,-6.5 11,-29.5 72,-29.5 72,-6.5 11,-6.5"/>
<text text-anchor="start" x="17.5" y="-14.5" font-family="Times New Roman,serif" font-size="15.00">numero </text>
<polygon fill="none" stroke="black" points="74,-6.5 74,-29.5 143,-29.5 143,-6.5 74,-6.5"/>
<text text-anchor="start" x="77" y="-14.5" font-family="Times New Roman,serif" font-size="15.00">INTEGER</text>
<polygon fill="none" stroke="black" points="145,-6.5 145,-29.5 227,-29.5 227,-6.5 145,-6.5"/>
<text text-anchor="start" x="174" y="-14.5" font-family="Times New Roman,serif" font-size="15.00">var </text>
<polygon fill="none" stroke="black" points="229,-6.5 229,-29.5 314,-29.5 314,-6.5 229,-6.5"/>
<text text-anchor="start" x="247" y="-14.5" font-family="Times New Roman,serif" font-size="15.00">Global$</text>
<polygon fill="none" stroke="black" points="316,-6.5 316,-29.5 361,-29.5 361,-6.5 316,-6.5"/>
<text text-anchor="start" x="332.5" y="-14.5" font-family="Times New Roman,serif" font-size="15.00">0 </text>
<polygon fill="none" stroke="black" points="8,-4 8,-183 364,-183 364,-4 8,-4"/>
</g>
</g>
</svg>
