<?xml version="1.0" encoding="UTF-8" standalone="no"?>
<!DOCTYPE svg PUBLIC "-//W3C//DTD SVG 1.1//EN"
 "http://www.w3.org/Graphics/SVG/1.1/DTD/svg11.dtd">
<!-- Generated by graphviz version 2.46.0 (20210118.1747)
 -->
<!-- Title: G Pages: 1 -->
<svg width="847pt" height="895pt"
 viewBox="0.00 0.00 847.00 895.00" xmlns="http://www.w3.org/2000/svg" xmlns:xlink="http://www.w3.org/1999/xlink">
<g id="graph0" class="graph" transform="scale(1 1) rotate(0) translate(4 891)">
<title>G</title>
<polygon fill="white" stroke="transparent" points="-4,4 -4,-891 843,-891 843,4 -4,4"/>
<!-- arset -->
<g id="node1" class="node">
<title>arset</title>
<polygon fill="none" stroke="black" points="11.5,-856.5 11.5,-879.5 180.5,-879.5 180.5,-856.5 11.5,-856.5"/>
<text text-anchor="start" x="76.5" y="-864.5" font-family="Times New Roman,serif" font-size="15.00">Name </text>
<polygon fill="none" stroke="black" points="182.5,-856.5 182.5,-879.5 251.5,-879.5 251.5,-856.5 182.5,-856.5"/>
<text text-anchor="start" x="200" y="-864.5" font-family="Times New Roman,serif" font-size="15.00">Type </text>
<polygon fill="none" stroke="black" points="253.5,-856.5 253.5,-879.5 335.5,-879.5 335.5,-856.5 253.5,-856.5"/>
<text text-anchor="start" x="256.5" y="-864.5" font-family="Times New Roman,serif" font-size="15.00">Type_Name </text>
<polygon fill="none" stroke="black" points="337.5,-856.5 337.5,-879.5 502.5,-879.5 502.5,-856.5 337.5,-856.5"/>
<text text-anchor="start" x="380.5" y="-864.5" font-family="Times New Roman,serif" font-size="15.00">Environment </text>
<polygon fill="none" stroke="black" points="504.5,-856.5 504.5,-879.5 828.5,-879.5 828.5,-856.5 504.5,-856.5"/>
<text text-anchor="start" x="647" y="-864.5" font-family="Times New Roman,serif" font-size="15.00">Value </text>
<polygon fill="none" stroke="black" points="11.5,-831.5 11.5,-854.5 180.5,-854.5 180.5,-831.5 11.5,-831.5"/>
<text text-anchor="start" x="70.5" y="-839.5" font-family="Times New Roman,serif" font-size="15.00">codigos </text>
<polygon fill="none" stroke="black" points="182.5,-831.5 182.5,-854.5 251.5,-854.5 251.5,-831.5 182.5,-831.5"/>
<text text-anchor="start" x="209" y="-839.5" font-family="Times New Roman,serif" font-size="15.00">ID</text>
<polygon fill="none" stroke="black" points="253.5,-831.5 253.5,-854.5 335.5,-854.5 335.5,-831.5 253.5,-831.5"/>
<text text-anchor="start" x="277" y="-839.5" font-family="Times New Roman,serif" font-size="15.00">array </text>
<polygon fill="none" stroke="black" points="337.5,-831.5 337.5,-854.5 502.5,-854.5 502.5,-831.5 337.5,-831.5"/>
<text text-anchor="start" x="395.5" y="-839.5" font-family="Times New Roman,serif" font-size="15.00">Global$</text>
<polygon fill="none" stroke="black" points="504.5,-831.5 504.5,-854.5 828.5,-854.5 828.5,-831.5 504.5,-831.5"/>
<text text-anchor="start" x="530" y="-839.5" font-family="Times New Roman,serif" font-size="15.00">_OLC2__Proyecto_1.Symbol_.Environment_ </text>
<polygon fill="none" stroke="black" points="11.5,-806.5 11.5,-829.5 180.5,-829.5 180.5,-806.5 11.5,-806.5"/>
<text text-anchor="start" x="75.5" y="-814.5" font-family="Times New Roman,serif" font-size="15.00">TOPE </text>
<polygon fill="none" stroke="black" points="182.5,-806.5 182.5,-829.5 251.5,-829.5 251.5,-806.5 182.5,-806.5"/>
<text text-anchor="start" x="185.5" y="-814.5" font-family="Times New Roman,serif" font-size="15.00">INTEGER</text>
<polygon fill="none" stroke="black" points="253.5,-806.5 253.5,-829.5 335.5,-829.5 335.5,-806.5 253.5,-806.5"/>
<text text-anchor="start" x="279" y="-814.5" font-family="Times New Roman,serif" font-size="15.00">cons </text>
<polygon fill="none" stroke="black" points="337.5,-806.5 337.5,-829.5 502.5,-829.5 502.5,-806.5 337.5,-806.5"/>
<text text-anchor="start" x="395.5" y="-814.5" font-family="Times New Roman,serif" font-size="15.00">Global$</text>
<polygon fill="none" stroke="black" points="504.5,-806.5 504.5,-829.5 828.5,-829.5 828.5,-806.5 504.5,-806.5"/>
<text text-anchor="start" x="660.5" y="-814.5" font-family="Times New Roman,serif" font-size="15.00">4 </text>
<polygon fill="none" stroke="black" points="11.5,-781.5 11.5,-804.5 180.5,-804.5 180.5,-781.5 11.5,-781.5"/>
<text text-anchor="start" x="77.5" y="-789.5" font-family="Times New Roman,serif" font-size="15.00">curso </text>
<polygon fill="none" stroke="black" points="182.5,-781.5 182.5,-804.5 251.5,-804.5 251.5,-781.5 182.5,-781.5"/>
<text text-anchor="start" x="209" y="-789.5" font-family="Times New Roman,serif" font-size="15.00">ID</text>
<polygon fill="none" stroke="black" points="253.5,-781.5 253.5,-804.5 335.5,-804.5 335.5,-781.5 253.5,-781.5"/>
<text text-anchor="start" x="274" y="-789.5" font-family="Times New Roman,serif" font-size="15.00">object </text>
<polygon fill="none" stroke="black" points="337.5,-781.5 337.5,-804.5 502.5,-804.5 502.5,-781.5 337.5,-781.5"/>
<text text-anchor="start" x="395.5" y="-789.5" font-family="Times New Roman,serif" font-size="15.00">Global$</text>
<polygon fill="none" stroke="black" points="504.5,-781.5 504.5,-804.5 828.5,-804.5 828.5,-781.5 504.5,-781.5"/>
<text text-anchor="start" x="530" y="-789.5" font-family="Times New Roman,serif" font-size="15.00">_OLC2__Proyecto_1.Symbol_.Environment_ </text>
<polygon fill="none" stroke="black" points="11.5,-756.5 11.5,-779.5 180.5,-779.5 180.5,-756.5 11.5,-756.5"/>
<text text-anchor="start" x="73.5" y="-764.5" font-family="Times New Roman,serif" font-size="15.00">codigo </text>
<polygon fill="none" stroke="black" points="182.5,-756.5 182.5,-779.5 251.5,-779.5 251.5,-756.5 182.5,-756.5"/>
<text text-anchor="start" x="185.5" y="-764.5" font-family="Times New Roman,serif" font-size="15.00">INTEGER</text>
<polygon fill="none" stroke="black" points="253.5,-756.5 253.5,-779.5 335.5,-779.5 335.5,-756.5 253.5,-756.5"/>
<text text-anchor="start" x="282.5" y="-764.5" font-family="Times New Roman,serif" font-size="15.00">var </text>
<polygon fill="none" stroke="black" points="337.5,-756.5 337.5,-779.5 502.5,-779.5 502.5,-756.5 337.5,-756.5"/>
<text text-anchor="start" x="403.5" y="-764.5" font-family="Times New Roman,serif" font-size="15.00">curso</text>
<polygon fill="none" stroke="black" points="504.5,-756.5 504.5,-779.5 828.5,-779.5 828.5,-756.5 504.5,-756.5"/>
<text text-anchor="start" x="660.5" y="-764.5" font-family="Times New Roman,serif" font-size="15.00">0 </text>
<polygon fill="none" stroke="black" points="11.5,-731.5 11.5,-754.5 180.5,-754.5 180.5,-731.5 11.5,-731.5"/>
<text text-anchor="start" x="71.5" y="-739.5" font-family="Times New Roman,serif" font-size="15.00">nombre </text>
<polygon fill="none" stroke="black" points="182.5,-731.5 182.5,-754.5 251.5,-754.5 251.5,-731.5 182.5,-731.5"/>
<text text-anchor="start" x="190.5" y="-739.5" font-family="Times New Roman,serif" font-size="15.00">STRING</text>
<polygon fill="none" stroke="black" points="253.5,-731.5 253.5,-754.5 335.5,-754.5 335.5,-731.5 253.5,-731.5"/>
<text text-anchor="start" x="282.5" y="-739.5" font-family="Times New Roman,serif" font-size="15.00">var </text>
<polygon fill="none" stroke="black" points="337.5,-731.5 337.5,-754.5 502.5,-754.5 502.5,-731.5 337.5,-731.5"/>
<text text-anchor="start" x="403.5" y="-739.5" font-family="Times New Roman,serif" font-size="15.00">curso</text>
<polygon fill="none" stroke="black" points="504.5,-731.5 504.5,-754.5 828.5,-754.5 828.5,-731.5 504.5,-731.5"/>
<text text-anchor="start" x="664.5" y="-739.5" font-family="Times New Roman,serif" font-size="15.00"> </text>
<polygon fill="none" stroke="black" points="11.5,-706.5 11.5,-729.5 180.5,-729.5 180.5,-706.5 11.5,-706.5"/>
<text text-anchor="start" x="81.5" y="-714.5" font-family="Times New Roman,serif" font-size="15.00">nota </text>
<polygon fill="none" stroke="black" points="182.5,-706.5 182.5,-729.5 251.5,-729.5 251.5,-706.5 182.5,-706.5"/>
<text text-anchor="start" x="185.5" y="-714.5" font-family="Times New Roman,serif" font-size="15.00">INTEGER</text>
<polygon fill="none" stroke="black" points="253.5,-706.5 253.5,-729.5 335.5,-729.5 335.5,-706.5 253.5,-706.5"/>
<text text-anchor="start" x="282.5" y="-714.5" font-family="Times New Roman,serif" font-size="15.00">var </text>
<polygon fill="none" stroke="black" points="337.5,-706.5 337.5,-729.5 502.5,-729.5 502.5,-706.5 337.5,-706.5"/>
<text text-anchor="start" x="403.5" y="-714.5" font-family="Times New Roman,serif" font-size="15.00">curso</text>
<polygon fill="none" stroke="black" points="504.5,-706.5 504.5,-729.5 828.5,-729.5 828.5,-706.5 504.5,-706.5"/>
<text text-anchor="start" x="660.5" y="-714.5" font-family="Times New Roman,serif" font-size="15.00">0 </text>
<polygon fill="none" stroke="black" points="11.5,-681.5 11.5,-704.5 180.5,-704.5 180.5,-681.5 11.5,-681.5"/>
<text text-anchor="start" x="70" y="-689.5" font-family="Times New Roman,serif" font-size="15.00">creditos </text>
<polygon fill="none" stroke="black" points="182.5,-681.5 182.5,-704.5 251.5,-704.5 251.5,-681.5 182.5,-681.5"/>
<text text-anchor="start" x="185.5" y="-689.5" font-family="Times New Roman,serif" font-size="15.00">INTEGER</text>
<polygon fill="none" stroke="black" points="253.5,-681.5 253.5,-704.5 335.5,-704.5 335.5,-681.5 253.5,-681.5"/>
<text text-anchor="start" x="282.5" y="-689.5" font-family="Times New Roman,serif" font-size="15.00">var </text>
<polygon fill="none" stroke="black" points="337.5,-681.5 337.5,-704.5 502.5,-704.5 502.5,-681.5 337.5,-681.5"/>
<text text-anchor="start" x="403.5" y="-689.5" font-family="Times New Roman,serif" font-size="15.00">curso</text>
<polygon fill="none" stroke="black" points="504.5,-681.5 504.5,-704.5 828.5,-704.5 828.5,-681.5 504.5,-681.5"/>
<text text-anchor="start" x="660.5" y="-689.5" font-family="Times New Roman,serif" font-size="15.00">0 </text>
<polygon fill="none" stroke="black" points="11.5,-656.5 11.5,-679.5 180.5,-679.5 180.5,-656.5 11.5,-656.5"/>
<text text-anchor="start" x="74.5" y="-664.5" font-family="Times New Roman,serif" font-size="15.00">cursos </text>
<polygon fill="none" stroke="black" points="182.5,-656.5 182.5,-679.5 251.5,-679.5 251.5,-656.5 182.5,-656.5"/>
<text text-anchor="start" x="209" y="-664.5" font-family="Times New Roman,serif" font-size="15.00">ID</text>
<polygon fill="none" stroke="black" points="253.5,-656.5 253.5,-679.5 335.5,-679.5 335.5,-656.5 253.5,-656.5"/>
<text text-anchor="start" x="277" y="-664.5" font-family="Times New Roman,serif" font-size="15.00">array </text>
<polygon fill="none" stroke="black" points="337.5,-656.5 337.5,-679.5 502.5,-679.5 502.5,-656.5 337.5,-656.5"/>
<text text-anchor="start" x="395.5" y="-664.5" font-family="Times New Roman,serif" font-size="15.00">Global$</text>
<polygon fill="none" stroke="black" points="504.5,-656.5 504.5,-679.5 828.5,-679.5 828.5,-656.5 504.5,-656.5"/>
<text text-anchor="start" x="530" y="-664.5" font-family="Times New Roman,serif" font-size="15.00">_OLC2__Proyecto_1.Symbol_.Environment_ </text>
<polygon fill="none" stroke="black" points="11.5,-631.5 11.5,-654.5 180.5,-654.5 180.5,-631.5 11.5,-631.5"/>
<text text-anchor="start" x="64" y="-639.5" font-family="Times New Roman,serif" font-size="15.00">estudiante </text>
<polygon fill="none" stroke="black" points="182.5,-631.5 182.5,-654.5 251.5,-654.5 251.5,-631.5 182.5,-631.5"/>
<text text-anchor="start" x="209" y="-639.5" font-family="Times New Roman,serif" font-size="15.00">ID</text>
<polygon fill="none" stroke="black" points="253.5,-631.5 253.5,-654.5 335.5,-654.5 335.5,-631.5 253.5,-631.5"/>
<text text-anchor="start" x="274" y="-639.5" font-family="Times New Roman,serif" font-size="15.00">object </text>
<polygon fill="none" stroke="black" points="337.5,-631.5 337.5,-654.5 502.5,-654.5 502.5,-631.5 337.5,-631.5"/>
<text text-anchor="start" x="395.5" y="-639.5" font-family="Times New Roman,serif" font-size="15.00">Global$</text>
<polygon fill="none" stroke="black" points="504.5,-631.5 504.5,-654.5 828.5,-654.5 828.5,-631.5 504.5,-631.5"/>
<text text-anchor="start" x="530" y="-639.5" font-family="Times New Roman,serif" font-size="15.00">_OLC2__Proyecto_1.Symbol_.Environment_ </text>
<polygon fill="none" stroke="black" points="11.5,-606.5 11.5,-629.5 180.5,-629.5 180.5,-606.5 11.5,-606.5"/>
<text text-anchor="start" x="71.5" y="-614.5" font-family="Times New Roman,serif" font-size="15.00">nombre </text>
<polygon fill="none" stroke="black" points="182.5,-606.5 182.5,-629.5 251.5,-629.5 251.5,-606.5 182.5,-606.5"/>
<text text-anchor="start" x="190.5" y="-614.5" font-family="Times New Roman,serif" font-size="15.00">STRING</text>
<polygon fill="none" stroke="black" points="253.5,-606.5 253.5,-629.5 335.5,-629.5 335.5,-606.5 253.5,-606.5"/>
<text text-anchor="start" x="282.5" y="-614.5" font-family="Times New Roman,serif" font-size="15.00">var </text>
<polygon fill="none" stroke="black" points="337.5,-606.5 337.5,-629.5 502.5,-629.5 502.5,-606.5 337.5,-606.5"/>
<text text-anchor="start" x="390" y="-614.5" font-family="Times New Roman,serif" font-size="15.00">estudiante</text>
<polygon fill="none" stroke="black" points="504.5,-606.5 504.5,-629.5 828.5,-629.5 828.5,-606.5 504.5,-606.5"/>
<text text-anchor="start" x="664.5" y="-614.5" font-family="Times New Roman,serif" font-size="15.00"> </text>
<polygon fill="none" stroke="black" points="11.5,-581.5 11.5,-604.5 180.5,-604.5 180.5,-581.5 11.5,-581.5"/>
<text text-anchor="start" x="76" y="-589.5" font-family="Times New Roman,serif" font-size="15.00">carnet </text>
<polygon fill="none" stroke="black" points="182.5,-581.5 182.5,-604.5 251.5,-604.5 251.5,-581.5 182.5,-581.5"/>
<text text-anchor="start" x="190.5" y="-589.5" font-family="Times New Roman,serif" font-size="15.00">STRING</text>
<polygon fill="none" stroke="black" points="253.5,-581.5 253.5,-604.5 335.5,-604.5 335.5,-581.5 253.5,-581.5"/>
<text text-anchor="start" x="282.5" y="-589.5" font-family="Times New Roman,serif" font-size="15.00">var </text>
<polygon fill="none" stroke="black" points="337.5,-581.5 337.5,-604.5 502.5,-604.5 502.5,-581.5 337.5,-581.5"/>
<text text-anchor="start" x="390" y="-589.5" font-family="Times New Roman,serif" font-size="15.00">estudiante</text>
<polygon fill="none" stroke="black" points="504.5,-581.5 504.5,-604.5 828.5,-604.5 828.5,-581.5 504.5,-581.5"/>
<text text-anchor="start" x="664.5" y="-589.5" font-family="Times New Roman,serif" font-size="15.00"> </text>
<polygon fill="none" stroke="black" points="11.5,-556.5 11.5,-579.5 180.5,-579.5 180.5,-556.5 11.5,-556.5"/>
<text text-anchor="start" x="58" y="-564.5" font-family="Times New Roman,serif" font-size="15.00">lista_cursos </text>
<polygon fill="none" stroke="black" points="182.5,-556.5 182.5,-579.5 251.5,-579.5 251.5,-556.5 182.5,-556.5"/>
<text text-anchor="start" x="209" y="-564.5" font-family="Times New Roman,serif" font-size="15.00">ID</text>
<polygon fill="none" stroke="black" points="253.5,-556.5 253.5,-579.5 335.5,-579.5 335.5,-556.5 253.5,-556.5"/>
<text text-anchor="start" x="282.5" y="-564.5" font-family="Times New Roman,serif" font-size="15.00">var </text>
<polygon fill="none" stroke="black" points="337.5,-556.5 337.5,-579.5 502.5,-579.5 502.5,-556.5 337.5,-556.5"/>
<text text-anchor="start" x="390" y="-564.5" font-family="Times New Roman,serif" font-size="15.00">estudiante</text>
<polygon fill="none" stroke="black" points="504.5,-556.5 504.5,-579.5 828.5,-579.5 828.5,-556.5 504.5,-556.5"/>
<text text-anchor="start" x="530" y="-564.5" font-family="Times New Roman,serif" font-size="15.00">_OLC2__Proyecto_1.Symbol_.Environment_ </text>
<polygon fill="none" stroke="black" points="11.5,-531.5 11.5,-554.5 180.5,-554.5 180.5,-531.5 11.5,-531.5"/>
<text text-anchor="start" x="61" y="-539.5" font-family="Times New Roman,serif" font-size="15.00">estudiantes </text>
<polygon fill="none" stroke="black" points="182.5,-531.5 182.5,-554.5 251.5,-554.5 251.5,-531.5 182.5,-531.5"/>
<text text-anchor="start" x="209" y="-539.5" font-family="Times New Roman,serif" font-size="15.00">ID</text>
<polygon fill="none" stroke="black" points="253.5,-531.5 253.5,-554.5 335.5,-554.5 335.5,-531.5 253.5,-531.5"/>
<text text-anchor="start" x="277" y="-539.5" font-family="Times New Roman,serif" font-size="15.00">array </text>
<polygon fill="none" stroke="black" points="337.5,-531.5 337.5,-554.5 502.5,-554.5 502.5,-531.5 337.5,-531.5"/>
<text text-anchor="start" x="395.5" y="-539.5" font-family="Times New Roman,serif" font-size="15.00">Global$</text>
<polygon fill="none" stroke="black" points="504.5,-531.5 504.5,-554.5 828.5,-554.5 828.5,-531.5 504.5,-531.5"/>
<text text-anchor="start" x="530" y="-539.5" font-family="Times New Roman,serif" font-size="15.00">_OLC2__Proyecto_1.Symbol_.Environment_ </text>
<polygon fill="none" stroke="black" points="11.5,-506.5 11.5,-529.5 180.5,-529.5 180.5,-506.5 11.5,-506.5"/>
<text text-anchor="start" x="65.5" y="-514.5" font-family="Times New Roman,serif" font-size="15.00">get_curso </text>
<polygon fill="none" stroke="black" points="182.5,-506.5 182.5,-529.5 251.5,-529.5 251.5,-506.5 182.5,-506.5"/>
<text text-anchor="start" x="209" y="-514.5" font-family="Times New Roman,serif" font-size="15.00">ID</text>
<polygon fill="none" stroke="black" points="253.5,-506.5 253.5,-529.5 335.5,-529.5 335.5,-506.5 253.5,-506.5"/>
<text text-anchor="start" x="268.5" y="-514.5" font-family="Times New Roman,serif" font-size="15.00">function </text>
<polygon fill="none" stroke="black" points="337.5,-506.5 337.5,-529.5 502.5,-529.5 502.5,-506.5 337.5,-506.5"/>
<text text-anchor="start" x="395.5" y="-514.5" font-family="Times New Roman,serif" font-size="15.00">Global$</text>
<polygon fill="none" stroke="black" points="504.5,-506.5 504.5,-529.5 828.5,-529.5 828.5,-506.5 504.5,-506.5"/>
<text text-anchor="start" x="507.5" y="-514.5" font-family="Times New Roman,serif" font-size="15.00">_OLC2__Proyecto_1.Instructions.Functions.Function </text>
<polygon fill="none" stroke="black" points="11.5,-481.5 11.5,-504.5 180.5,-504.5 180.5,-481.5 11.5,-481.5"/>
<text text-anchor="start" x="65.5" y="-489.5" font-family="Times New Roman,serif" font-size="15.00">get_curso </text>
<polygon fill="none" stroke="black" points="182.5,-481.5 182.5,-504.5 251.5,-504.5 251.5,-481.5 182.5,-481.5"/>
<text text-anchor="start" x="209" y="-489.5" font-family="Times New Roman,serif" font-size="15.00">ID</text>
<polygon fill="none" stroke="black" points="253.5,-481.5 253.5,-504.5 335.5,-504.5 335.5,-481.5 253.5,-481.5"/>
<text text-anchor="start" x="282.5" y="-489.5" font-family="Times New Roman,serif" font-size="15.00">var </text>
<polygon fill="none" stroke="black" points="337.5,-481.5 337.5,-504.5 502.5,-504.5 502.5,-481.5 337.5,-481.5"/>
<text text-anchor="start" x="391" y="-489.5" font-family="Times New Roman,serif" font-size="15.00">get_curso</text>
<polygon fill="none" stroke="black" points="504.5,-481.5 504.5,-504.5 828.5,-504.5 828.5,-481.5 504.5,-481.5"/>
<text text-anchor="start" x="530" y="-489.5" font-family="Times New Roman,serif" font-size="15.00">_OLC2__Proyecto_1.Symbol_.Environment_ </text>
<polygon fill="none" stroke="black" points="11.5,-456.5 11.5,-479.5 180.5,-479.5 180.5,-456.5 11.5,-456.5"/>
<text text-anchor="start" x="53.5" y="-464.5" font-family="Times New Roman,serif" font-size="15.00">codigo_curso </text>
<polygon fill="none" stroke="black" points="182.5,-456.5 182.5,-479.5 251.5,-479.5 251.5,-456.5 182.5,-456.5"/>
<text text-anchor="start" x="185.5" y="-464.5" font-family="Times New Roman,serif" font-size="15.00">INTEGER</text>
<polygon fill="none" stroke="black" points="253.5,-456.5 253.5,-479.5 335.5,-479.5 335.5,-456.5 253.5,-456.5"/>
<text text-anchor="start" x="282.5" y="-464.5" font-family="Times New Roman,serif" font-size="15.00">var </text>
<polygon fill="none" stroke="black" points="337.5,-456.5 337.5,-479.5 502.5,-479.5 502.5,-456.5 337.5,-456.5"/>
<text text-anchor="start" x="391" y="-464.5" font-family="Times New Roman,serif" font-size="15.00">get_curso</text>
<polygon fill="none" stroke="black" points="504.5,-456.5 504.5,-479.5 828.5,-479.5 828.5,-456.5 504.5,-456.5"/>
<text text-anchor="start" x="653" y="-464.5" font-family="Times New Roman,serif" font-size="15.00">773 </text>
<polygon fill="none" stroke="black" points="11.5,-431.5 11.5,-454.5 180.5,-454.5 180.5,-431.5 11.5,-431.5"/>
<text text-anchor="start" x="72.5" y="-439.5" font-family="Times New Roman,serif" font-size="15.00">retorno </text>
<polygon fill="none" stroke="black" points="182.5,-431.5 182.5,-454.5 251.5,-454.5 251.5,-431.5 182.5,-431.5"/>
<text text-anchor="start" x="209" y="-439.5" font-family="Times New Roman,serif" font-size="15.00">ID</text>
<polygon fill="none" stroke="black" points="253.5,-431.5 253.5,-454.5 335.5,-454.5 335.5,-431.5 253.5,-431.5"/>
<text text-anchor="start" x="282.5" y="-439.5" font-family="Times New Roman,serif" font-size="15.00">var </text>
<polygon fill="none" stroke="black" points="337.5,-431.5 337.5,-454.5 502.5,-454.5 502.5,-431.5 337.5,-431.5"/>
<text text-anchor="start" x="391" y="-439.5" font-family="Times New Roman,serif" font-size="15.00">get_curso</text>
<polygon fill="none" stroke="black" points="504.5,-431.5 504.5,-454.5 828.5,-454.5 828.5,-431.5 504.5,-431.5"/>
<text text-anchor="start" x="530" y="-439.5" font-family="Times New Roman,serif" font-size="15.00">_OLC2__Proyecto_1.Symbol_.Environment_ </text>
<polygon fill="none" stroke="black" points="11.5,-406.5 11.5,-429.5 180.5,-429.5 180.5,-406.5 11.5,-406.5"/>
<text text-anchor="start" x="62.5" y="-414.5" font-family="Times New Roman,serif" font-size="15.00">get_cursos </text>
<polygon fill="none" stroke="black" points="182.5,-406.5 182.5,-429.5 251.5,-429.5 251.5,-406.5 182.5,-406.5"/>
<text text-anchor="start" x="209" y="-414.5" font-family="Times New Roman,serif" font-size="15.00">ID</text>
<polygon fill="none" stroke="black" points="253.5,-406.5 253.5,-429.5 335.5,-429.5 335.5,-406.5 253.5,-406.5"/>
<text text-anchor="start" x="268.5" y="-414.5" font-family="Times New Roman,serif" font-size="15.00">function </text>
<polygon fill="none" stroke="black" points="337.5,-406.5 337.5,-429.5 502.5,-429.5 502.5,-406.5 337.5,-406.5"/>
<text text-anchor="start" x="395.5" y="-414.5" font-family="Times New Roman,serif" font-size="15.00">Global$</text>
<polygon fill="none" stroke="black" points="504.5,-406.5 504.5,-429.5 828.5,-429.5 828.5,-406.5 504.5,-406.5"/>
<text text-anchor="start" x="507.5" y="-414.5" font-family="Times New Roman,serif" font-size="15.00">_OLC2__Proyecto_1.Instructions.Functions.Function </text>
<polygon fill="none" stroke="black" points="11.5,-381.5 11.5,-404.5 180.5,-404.5 180.5,-381.5 11.5,-381.5"/>
<text text-anchor="start" x="62.5" y="-389.5" font-family="Times New Roman,serif" font-size="15.00">get_cursos </text>
<polygon fill="none" stroke="black" points="182.5,-381.5 182.5,-404.5 251.5,-404.5 251.5,-381.5 182.5,-381.5"/>
<text text-anchor="start" x="209" y="-389.5" font-family="Times New Roman,serif" font-size="15.00">ID</text>
<polygon fill="none" stroke="black" points="253.5,-381.5 253.5,-404.5 335.5,-404.5 335.5,-381.5 253.5,-381.5"/>
<text text-anchor="start" x="282.5" y="-389.5" font-family="Times New Roman,serif" font-size="15.00">var </text>
<polygon fill="none" stroke="black" points="337.5,-381.5 337.5,-404.5 502.5,-404.5 502.5,-381.5 337.5,-381.5"/>
<text text-anchor="start" x="388" y="-389.5" font-family="Times New Roman,serif" font-size="15.00">get_cursos</text>
<polygon fill="none" stroke="black" points="504.5,-381.5 504.5,-404.5 828.5,-404.5 828.5,-381.5 504.5,-381.5"/>
<text text-anchor="start" x="664.5" y="-389.5" font-family="Times New Roman,serif" font-size="15.00"> </text>
<polygon fill="none" stroke="black" points="11.5,-356.5 11.5,-379.5 180.5,-379.5 180.5,-356.5 11.5,-356.5"/>
<text text-anchor="start" x="58" y="-364.5" font-family="Times New Roman,serif" font-size="15.00">lista_cursos </text>
<polygon fill="none" stroke="black" points="182.5,-356.5 182.5,-379.5 251.5,-379.5 251.5,-356.5 182.5,-356.5"/>
<text text-anchor="start" x="209" y="-364.5" font-family="Times New Roman,serif" font-size="15.00">ID</text>
<polygon fill="none" stroke="black" points="253.5,-356.5 253.5,-379.5 335.5,-379.5 335.5,-356.5 253.5,-356.5"/>
<text text-anchor="start" x="282.5" y="-364.5" font-family="Times New Roman,serif" font-size="15.00">var </text>
<polygon fill="none" stroke="black" points="337.5,-356.5 337.5,-379.5 502.5,-379.5 502.5,-356.5 337.5,-356.5"/>
<text text-anchor="start" x="388" y="-364.5" font-family="Times New Roman,serif" font-size="15.00">get_cursos</text>
<polygon fill="none" stroke="black" points="504.5,-356.5 504.5,-379.5 828.5,-379.5 828.5,-356.5 504.5,-356.5"/>
<text text-anchor="start" x="530" y="-364.5" font-family="Times New Roman,serif" font-size="15.00">_OLC2__Proyecto_1.Symbol_.Environment_ </text>
<polygon fill="none" stroke="black" points="11.5,-331.5 11.5,-354.5 180.5,-354.5 180.5,-331.5 11.5,-331.5"/>
<text text-anchor="start" x="54" y="-339.5" font-family="Times New Roman,serif" font-size="15.00">lista_codigos </text>
<polygon fill="none" stroke="black" points="182.5,-331.5 182.5,-354.5 251.5,-354.5 251.5,-331.5 182.5,-331.5"/>
<text text-anchor="start" x="209" y="-339.5" font-family="Times New Roman,serif" font-size="15.00">ID</text>
<polygon fill="none" stroke="black" points="253.5,-331.5 253.5,-354.5 335.5,-354.5 335.5,-331.5 253.5,-331.5"/>
<text text-anchor="start" x="282.5" y="-339.5" font-family="Times New Roman,serif" font-size="15.00">var </text>
<polygon fill="none" stroke="black" points="337.5,-331.5 337.5,-354.5 502.5,-354.5 502.5,-331.5 337.5,-331.5"/>
<text text-anchor="start" x="388" y="-339.5" font-family="Times New Roman,serif" font-size="15.00">get_cursos</text>
<polygon fill="none" stroke="black" points="504.5,-331.5 504.5,-354.5 828.5,-354.5 828.5,-331.5 504.5,-331.5"/>
<text text-anchor="start" x="530" y="-339.5" font-family="Times New Roman,serif" font-size="15.00">_OLC2__Proyecto_1.Symbol_.Environment_ </text>
<polygon fill="none" stroke="black" points="11.5,-306.5 11.5,-329.5 180.5,-329.5 180.5,-306.5 11.5,-306.5"/>
<text text-anchor="start" x="91.5" y="-314.5" font-family="Times New Roman,serif" font-size="15.00">i </text>
<polygon fill="none" stroke="black" points="182.5,-306.5 182.5,-329.5 251.5,-329.5 251.5,-306.5 182.5,-306.5"/>
<text text-anchor="start" x="185.5" y="-314.5" font-family="Times New Roman,serif" font-size="15.00">INTEGER</text>
<polygon fill="none" stroke="black" points="253.5,-306.5 253.5,-329.5 335.5,-329.5 335.5,-306.5 253.5,-306.5"/>
<text text-anchor="start" x="282.5" y="-314.5" font-family="Times New Roman,serif" font-size="15.00">var </text>
<polygon fill="none" stroke="black" points="337.5,-306.5 337.5,-329.5 502.5,-329.5 502.5,-306.5 337.5,-306.5"/>
<text text-anchor="start" x="388" y="-314.5" font-family="Times New Roman,serif" font-size="15.00">get_cursos</text>
<polygon fill="none" stroke="black" points="504.5,-306.5 504.5,-329.5 828.5,-329.5 828.5,-306.5 504.5,-306.5"/>
<text text-anchor="start" x="660.5" y="-314.5" font-family="Times New Roman,serif" font-size="15.00">5 </text>
<polygon fill="none" stroke="black" points="11.5,-281.5 11.5,-304.5 180.5,-304.5 180.5,-281.5 11.5,-281.5"/>
<text text-anchor="start" x="52" y="-289.5" font-family="Times New Roman,serif" font-size="15.00">get_estudiante </text>
<polygon fill="none" stroke="black" points="182.5,-281.5 182.5,-304.5 251.5,-304.5 251.5,-281.5 182.5,-281.5"/>
<text text-anchor="start" x="209" y="-289.5" font-family="Times New Roman,serif" font-size="15.00">ID</text>
<polygon fill="none" stroke="black" points="253.5,-281.5 253.5,-304.5 335.5,-304.5 335.5,-281.5 253.5,-281.5"/>
<text text-anchor="start" x="268.5" y="-289.5" font-family="Times New Roman,serif" font-size="15.00">function </text>
<polygon fill="none" stroke="black" points="337.5,-281.5 337.5,-304.5 502.5,-304.5 502.5,-281.5 337.5,-281.5"/>
<text text-anchor="start" x="395.5" y="-289.5" font-family="Times New Roman,serif" font-size="15.00">Global$</text>
<polygon fill="none" stroke="black" points="504.5,-281.5 504.5,-304.5 828.5,-304.5 828.5,-281.5 504.5,-281.5"/>
<text text-anchor="start" x="507.5" y="-289.5" font-family="Times New Roman,serif" font-size="15.00">_OLC2__Proyecto_1.Instructions.Functions.Function </text>
<polygon fill="none" stroke="black" points="11.5,-256.5 11.5,-279.5 180.5,-279.5 180.5,-256.5 11.5,-256.5"/>
<text text-anchor="start" x="52" y="-264.5" font-family="Times New Roman,serif" font-size="15.00">get_estudiante </text>
<polygon fill="none" stroke="black" points="182.5,-256.5 182.5,-279.5 251.5,-279.5 251.5,-256.5 182.5,-256.5"/>
<text text-anchor="start" x="209" y="-264.5" font-family="Times New Roman,serif" font-size="15.00">ID</text>
<polygon fill="none" stroke="black" points="253.5,-256.5 253.5,-279.5 335.5,-279.5 335.5,-256.5 253.5,-256.5"/>
<text text-anchor="start" x="282.5" y="-264.5" font-family="Times New Roman,serif" font-size="15.00">var </text>
<polygon fill="none" stroke="black" points="337.5,-256.5 337.5,-279.5 502.5,-279.5 502.5,-256.5 337.5,-256.5"/>
<text text-anchor="start" x="377.5" y="-264.5" font-family="Times New Roman,serif" font-size="15.00">get_estudiante</text>
<polygon fill="none" stroke="black" points="504.5,-256.5 504.5,-279.5 828.5,-279.5 828.5,-256.5 504.5,-256.5"/>
<text text-anchor="start" x="530" y="-264.5" font-family="Times New Roman,serif" font-size="15.00">_OLC2__Proyecto_1.Symbol_.Environment_ </text>
<polygon fill="none" stroke="black" points="11.5,-231.5 11.5,-254.5 180.5,-254.5 180.5,-231.5 11.5,-231.5"/>
<text text-anchor="start" x="68.5" y="-239.5" font-family="Times New Roman,serif" font-size="15.00">posicion </text>
<polygon fill="none" stroke="black" points="182.5,-231.5 182.5,-254.5 251.5,-254.5 251.5,-231.5 182.5,-231.5"/>
<text text-anchor="start" x="185.5" y="-239.5" font-family="Times New Roman,serif" font-size="15.00">INTEGER</text>
<polygon fill="none" stroke="black" points="253.5,-231.5 253.5,-254.5 335.5,-254.5 335.5,-231.5 253.5,-231.5"/>
<text text-anchor="start" x="282.5" y="-239.5" font-family="Times New Roman,serif" font-size="15.00">var </text>
<polygon fill="none" stroke="black" points="337.5,-231.5 337.5,-254.5 502.5,-254.5 502.5,-231.5 337.5,-231.5"/>
<text text-anchor="start" x="377.5" y="-239.5" font-family="Times New Roman,serif" font-size="15.00">get_estudiante</text>
<polygon fill="none" stroke="black" points="504.5,-231.5 504.5,-254.5 828.5,-254.5 828.5,-231.5 504.5,-231.5"/>
<text text-anchor="start" x="660.5" y="-239.5" font-family="Times New Roman,serif" font-size="15.00">4 </text>
<polygon fill="none" stroke="black" points="11.5,-206.5 11.5,-229.5 180.5,-229.5 180.5,-206.5 11.5,-206.5"/>
<text text-anchor="start" x="72.5" y="-214.5" font-family="Times New Roman,serif" font-size="15.00">retorno </text>
<polygon fill="none" stroke="black" points="182.5,-206.5 182.5,-229.5 251.5,-229.5 251.5,-206.5 182.5,-206.5"/>
<text text-anchor="start" x="209" y="-214.5" font-family="Times New Roman,serif" font-size="15.00">ID</text>
<polygon fill="none" stroke="black" points="253.5,-206.5 253.5,-229.5 335.5,-229.5 335.5,-206.5 253.5,-206.5"/>
<text text-anchor="start" x="282.5" y="-214.5" font-family="Times New Roman,serif" font-size="15.00">var </text>
<polygon fill="none" stroke="black" points="337.5,-206.5 337.5,-229.5 502.5,-229.5 502.5,-206.5 337.5,-206.5"/>
<text text-anchor="start" x="377.5" y="-214.5" font-family="Times New Roman,serif" font-size="15.00">get_estudiante</text>
<polygon fill="none" stroke="black" points="504.5,-206.5 504.5,-229.5 828.5,-229.5 828.5,-206.5 504.5,-206.5"/>
<text text-anchor="start" x="530" y="-214.5" font-family="Times New Roman,serif" font-size="15.00">_OLC2__Proyecto_1.Symbol_.Environment_ </text>
<polygon fill="none" stroke="black" points="11.5,-181.5 11.5,-204.5 180.5,-204.5 180.5,-181.5 11.5,-181.5"/>
<text text-anchor="start" x="25" y="-189.5" font-family="Times New Roman,serif" font-size="15.00">imprimir_datos_cursos </text>
<polygon fill="none" stroke="black" points="182.5,-181.5 182.5,-204.5 251.5,-204.5 251.5,-181.5 182.5,-181.5"/>
<text text-anchor="start" x="199" y="-189.5" font-family="Times New Roman,serif" font-size="15.00">VOID</text>
<polygon fill="none" stroke="black" points="253.5,-181.5 253.5,-204.5 335.5,-204.5 335.5,-181.5 253.5,-181.5"/>
<text text-anchor="start" x="268.5" y="-189.5" font-family="Times New Roman,serif" font-size="15.00">function </text>
<polygon fill="none" stroke="black" points="337.5,-181.5 337.5,-204.5 502.5,-204.5 502.5,-181.5 337.5,-181.5"/>
<text text-anchor="start" x="395.5" y="-189.5" font-family="Times New Roman,serif" font-size="15.00">Global$</text>
<polygon fill="none" stroke="black" points="504.5,-181.5 504.5,-204.5 828.5,-204.5 828.5,-181.5 504.5,-181.5"/>
<text text-anchor="start" x="507.5" y="-189.5" font-family="Times New Roman,serif" font-size="15.00">_OLC2__Proyecto_1.Instructions.Functions.Function </text>
<polygon fill="none" stroke="black" points="11.5,-156.5 11.5,-179.5 180.5,-179.5 180.5,-156.5 11.5,-156.5"/>
<text text-anchor="start" x="72" y="-164.5" font-family="Times New Roman,serif" font-size="15.00">entrada </text>
<polygon fill="none" stroke="black" points="182.5,-156.5 182.5,-179.5 251.5,-179.5 251.5,-156.5 182.5,-156.5"/>
<text text-anchor="start" x="209" y="-164.5" font-family="Times New Roman,serif" font-size="15.00">ID</text>
<polygon fill="none" stroke="black" points="253.5,-156.5 253.5,-179.5 335.5,-179.5 335.5,-156.5 253.5,-156.5"/>
<text text-anchor="start" x="282.5" y="-164.5" font-family="Times New Roman,serif" font-size="15.00">var </text>
<polygon fill="none" stroke="black" points="337.5,-156.5 337.5,-179.5 502.5,-179.5 502.5,-156.5 337.5,-156.5"/>
<text text-anchor="start" x="351" y="-164.5" font-family="Times New Roman,serif" font-size="15.00">imprimir_datos_cursos</text>
<polygon fill="none" stroke="black" points="504.5,-156.5 504.5,-179.5 828.5,-179.5 828.5,-156.5 504.5,-156.5"/>
<text text-anchor="start" x="530" y="-164.5" font-family="Times New Roman,serif" font-size="15.00">_OLC2__Proyecto_1.Symbol_.Environment_ </text>
<polygon fill="none" stroke="black" points="11.5,-131.5 11.5,-154.5 180.5,-154.5 180.5,-131.5 11.5,-131.5"/>
<text text-anchor="start" x="91.5" y="-139.5" font-family="Times New Roman,serif" font-size="15.00">i </text>
<polygon fill="none" stroke="black" points="182.5,-131.5 182.5,-154.5 251.5,-154.5 251.5,-131.5 182.5,-131.5"/>
<text text-anchor="start" x="185.5" y="-139.5" font-family="Times New Roman,serif" font-size="15.00">INTEGER</text>
<polygon fill="none" stroke="black" points="253.5,-131.5 253.5,-154.5 335.5,-154.5 335.5,-131.5 253.5,-131.5"/>
<text text-anchor="start" x="282.5" y="-139.5" font-family="Times New Roman,serif" font-size="15.00">var </text>
<polygon fill="none" stroke="black" points="337.5,-131.5 337.5,-154.5 502.5,-154.5 502.5,-131.5 337.5,-131.5"/>
<text text-anchor="start" x="351" y="-139.5" font-family="Times New Roman,serif" font-size="15.00">imprimir_datos_cursos</text>
<polygon fill="none" stroke="black" points="504.5,-131.5 504.5,-154.5 828.5,-154.5 828.5,-131.5 504.5,-131.5"/>
<text text-anchor="start" x="660.5" y="-139.5" font-family="Times New Roman,serif" font-size="15.00">5 </text>
<polygon fill="none" stroke="black" points="11.5,-106.5 11.5,-129.5 180.5,-129.5 180.5,-106.5 11.5,-106.5"/>
<text text-anchor="start" x="14.5" y="-114.5" font-family="Times New Roman,serif" font-size="15.00">imprimir_datos_estudiante </text>
<polygon fill="none" stroke="black" points="182.5,-106.5 182.5,-129.5 251.5,-129.5 251.5,-106.5 182.5,-106.5"/>
<text text-anchor="start" x="199" y="-114.5" font-family="Times New Roman,serif" font-size="15.00">VOID</text>
<polygon fill="none" stroke="black" points="253.5,-106.5 253.5,-129.5 335.5,-129.5 335.5,-106.5 253.5,-106.5"/>
<text text-anchor="start" x="268.5" y="-114.5" font-family="Times New Roman,serif" font-size="15.00">function </text>
<polygon fill="none" stroke="black" points="337.5,-106.5 337.5,-129.5 502.5,-129.5 502.5,-106.5 337.5,-106.5"/>
<text text-anchor="start" x="395.5" y="-114.5" font-family="Times New Roman,serif" font-size="15.00">Global$</text>
<polygon fill="none" stroke="black" points="504.5,-106.5 504.5,-129.5 828.5,-129.5 828.5,-106.5 504.5,-106.5"/>
<text text-anchor="start" x="507.5" y="-114.5" font-family="Times New Roman,serif" font-size="15.00">_OLC2__Proyecto_1.Instructions.Functions.Function </text>
<polygon fill="none" stroke="black" points="11.5,-81.5 11.5,-104.5 180.5,-104.5 180.5,-81.5 11.5,-81.5"/>
<text text-anchor="start" x="72" y="-89.5" font-family="Times New Roman,serif" font-size="15.00">entrada </text>
<polygon fill="none" stroke="black" points="182.5,-81.5 182.5,-104.5 251.5,-104.5 251.5,-81.5 182.5,-81.5"/>
<text text-anchor="start" x="209" y="-89.5" font-family="Times New Roman,serif" font-size="15.00">ID</text>
<polygon fill="none" stroke="black" points="253.5,-81.5 253.5,-104.5 335.5,-104.5 335.5,-81.5 253.5,-81.5"/>
<text text-anchor="start" x="282.5" y="-89.5" font-family="Times New Roman,serif" font-size="15.00">var </text>
<polygon fill="none" stroke="black" points="337.5,-81.5 337.5,-104.5 502.5,-104.5 502.5,-81.5 337.5,-81.5"/>
<text text-anchor="start" x="340.5" y="-89.5" font-family="Times New Roman,serif" font-size="15.00">imprimir_datos_estudiante</text>
<polygon fill="none" stroke="black" points="504.5,-81.5 504.5,-104.5 828.5,-104.5 828.5,-81.5 504.5,-81.5"/>
<text text-anchor="start" x="530" y="-89.5" font-family="Times New Roman,serif" font-size="15.00">_OLC2__Proyecto_1.Symbol_.Environment_ </text>
<polygon fill="none" stroke="black" points="11.5,-56.5 11.5,-79.5 180.5,-79.5 180.5,-56.5 11.5,-56.5"/>
<text text-anchor="start" x="70" y="-64.5" font-family="Times New Roman,serif" font-size="15.00">mensaje </text>
<polygon fill="none" stroke="black" points="182.5,-56.5 182.5,-79.5 251.5,-79.5 251.5,-56.5 182.5,-56.5"/>
<text text-anchor="start" x="190.5" y="-64.5" font-family="Times New Roman,serif" font-size="15.00">STRING</text>
<polygon fill="none" stroke="black" points="253.5,-56.5 253.5,-79.5 335.5,-79.5 335.5,-56.5 253.5,-56.5"/>
<text text-anchor="start" x="282.5" y="-64.5" font-family="Times New Roman,serif" font-size="15.00">var </text>
<polygon fill="none" stroke="black" points="337.5,-56.5 337.5,-79.5 502.5,-79.5 502.5,-56.5 337.5,-56.5"/>
<text text-anchor="start" x="340.5" y="-64.5" font-family="Times New Roman,serif" font-size="15.00">imprimir_datos_estudiante</text>
<polygon fill="none" stroke="black" points="504.5,-56.5 504.5,-79.5 828.5,-79.5 828.5,-56.5 504.5,-56.5"/>
<text text-anchor="start" x="598.5" y="-64.5" font-family="Times New Roman,serif" font-size="15.00">Estudiante reconocido </text>
<polygon fill="none" stroke="black" points="11.5,-31.5 11.5,-54.5 180.5,-54.5 180.5,-31.5 11.5,-31.5"/>
<text text-anchor="start" x="68" y="-39.5" font-family="Times New Roman,serif" font-size="15.00">contador </text>
<polygon fill="none" stroke="black" points="182.5,-31.5 182.5,-54.5 251.5,-54.5 251.5,-31.5 182.5,-31.5"/>
<text text-anchor="start" x="185.5" y="-39.5" font-family="Times New Roman,serif" font-size="15.00">INTEGER</text>
<polygon fill="none" stroke="black" points="253.5,-31.5 253.5,-54.5 335.5,-54.5 335.5,-31.5 253.5,-31.5"/>
<text text-anchor="start" x="282.5" y="-39.5" font-family="Times New Roman,serif" font-size="15.00">var </text>
<polygon fill="none" stroke="black" points="337.5,-31.5 337.5,-54.5 502.5,-54.5 502.5,-31.5 337.5,-31.5"/>
<text text-anchor="start" x="395.5" y="-39.5" font-family="Times New Roman,serif" font-size="15.00">Global$</text>
<polygon fill="none" stroke="black" points="504.5,-31.5 504.5,-54.5 828.5,-54.5 828.5,-31.5 504.5,-31.5"/>
<text text-anchor="start" x="660.5" y="-39.5" font-family="Times New Roman,serif" font-size="15.00">0 </text>
<polygon fill="none" stroke="black" points="11.5,-6.5 11.5,-29.5 180.5,-29.5 180.5,-6.5 11.5,-6.5"/>
<text text-anchor="start" x="48" y="-14.5" font-family="Times New Roman,serif" font-size="15.00">listado_general </text>
<polygon fill="none" stroke="black" points="182.5,-6.5 182.5,-29.5 251.5,-29.5 251.5,-6.5 182.5,-6.5"/>
<text text-anchor="start" x="209" y="-14.5" font-family="Times New Roman,serif" font-size="15.00">ID</text>
<polygon fill="none" stroke="black" points="253.5,-6.5 253.5,-29.5 335.5,-29.5 335.5,-6.5 253.5,-6.5"/>
<text text-anchor="start" x="282.5" y="-14.5" font-family="Times New Roman,serif" font-size="15.00">var </text>
<polygon fill="none" stroke="black" points="337.5,-6.5 337.5,-29.5 502.5,-29.5 502.5,-6.5 337.5,-6.5"/>
<text text-anchor="start" x="395.5" y="-14.5" font-family="Times New Roman,serif" font-size="15.00">Global$</text>
<polygon fill="none" stroke="black" points="504.5,-6.5 504.5,-29.5 828.5,-29.5 828.5,-6.5 504.5,-6.5"/>
<text text-anchor="start" x="530" y="-14.5" font-family="Times New Roman,serif" font-size="15.00">_OLC2__Proyecto_1.Symbol_.Environment_ </text>
<polygon fill="none" stroke="black" points="8,-4 8,-883 831,-883 831,-4 8,-4"/>
</g>
</g>
</svg>
