<?xml version="1.0" encoding="UTF-8" standalone="no"?>
<!DOCTYPE svg PUBLIC "-//W3C//DTD SVG 1.1//EN"
 "http://www.w3.org/Graphics/SVG/1.1/DTD/svg11.dtd">
<!-- Generated by graphviz version 2.46.0 (20210118.1747)
 -->
<!-- Title: G Pages: 1 -->
<svg width="671pt" height="145pt"
 viewBox="0.00 0.00 671.00 145.00" xmlns="http://www.w3.org/2000/svg" xmlns:xlink="http://www.w3.org/1999/xlink">
<g id="graph0" class="graph" transform="scale(1 1) rotate(0) translate(4 141)">
<title>G</title>
<polygon fill="white" stroke="transparent" points="-4,4 -4,-141 667,-141 667,4 -4,4"/>
<!-- arset -->
<g id="node1" class="node">
<title>arset</title>
<polygon fill="none" stroke="black" points="11.5,-106.5 11.5,-129.5 84.5,-129.5 84.5,-106.5 11.5,-106.5"/>
<text text-anchor="start" x="28.5" y="-114.5" font-family="Times New Roman,serif" font-size="15.00">Name </text>
<polygon fill="none" stroke="black" points="86.5,-106.5 86.5,-129.5 155.5,-129.5 155.5,-106.5 86.5,-106.5"/>
<text text-anchor="start" x="104" y="-114.5" font-family="Times New Roman,serif" font-size="15.00">Type </text>
<polygon fill="none" stroke="black" points="157.5,-106.5 157.5,-129.5 239.5,-129.5 239.5,-106.5 157.5,-106.5"/>
<text text-anchor="start" x="160.5" y="-114.5" font-family="Times New Roman,serif" font-size="15.00">Type_Name </text>
<polygon fill="none" stroke="black" points="241.5,-106.5 241.5,-129.5 326.5,-129.5 326.5,-106.5 241.5,-106.5"/>
<text text-anchor="start" x="244.5" y="-114.5" font-family="Times New Roman,serif" font-size="15.00">Environment </text>
<polygon fill="none" stroke="black" points="328.5,-106.5 328.5,-129.5 652.5,-129.5 652.5,-106.5 328.5,-106.5"/>
<text text-anchor="start" x="471" y="-114.5" font-family="Times New Roman,serif" font-size="15.00">Value </text>
<polygon fill="none" stroke="black" points="11.5,-81.5 11.5,-104.5 84.5,-104.5 84.5,-81.5 11.5,-81.5"/>
<text text-anchor="start" x="14.5" y="-89.5" font-family="Times New Roman,serif" font-size="15.00">ackermann </text>
<polygon fill="none" stroke="black" points="86.5,-81.5 86.5,-104.5 155.5,-104.5 155.5,-81.5 86.5,-81.5"/>
<text text-anchor="start" x="89.5" y="-89.5" font-family="Times New Roman,serif" font-size="15.00">INTEGER</text>
<polygon fill="none" stroke="black" points="157.5,-81.5 157.5,-104.5 239.5,-104.5 239.5,-81.5 157.5,-81.5"/>
<text text-anchor="start" x="172.5" y="-89.5" font-family="Times New Roman,serif" font-size="15.00">function </text>
<polygon fill="none" stroke="black" points="241.5,-81.5 241.5,-104.5 326.5,-104.5 326.5,-81.5 241.5,-81.5"/>
<text text-anchor="start" x="259.5" y="-89.5" font-family="Times New Roman,serif" font-size="15.00">Global$</text>
<polygon fill="none" stroke="black" points="328.5,-81.5 328.5,-104.5 652.5,-104.5 652.5,-81.5 328.5,-81.5"/>
<text text-anchor="start" x="331.5" y="-89.5" font-family="Times New Roman,serif" font-size="15.00">_OLC2__Proyecto_1.Instructions.Functions.Function </text>
<polygon fill="none" stroke="black" points="11.5,-56.5 11.5,-79.5 84.5,-79.5 84.5,-56.5 11.5,-56.5"/>
<text text-anchor="start" x="14.5" y="-64.5" font-family="Times New Roman,serif" font-size="15.00">ackermann </text>
<polygon fill="none" stroke="black" points="86.5,-56.5 86.5,-79.5 155.5,-79.5 155.5,-56.5 86.5,-56.5"/>
<text text-anchor="start" x="89.5" y="-64.5" font-family="Times New Roman,serif" font-size="15.00">INTEGER</text>
<polygon fill="none" stroke="black" points="157.5,-56.5 157.5,-79.5 239.5,-79.5 239.5,-56.5 157.5,-56.5"/>
<text text-anchor="start" x="186.5" y="-64.5" font-family="Times New Roman,serif" font-size="15.00">var </text>
<polygon fill="none" stroke="black" points="241.5,-56.5 241.5,-79.5 326.5,-79.5 326.5,-56.5 241.5,-56.5"/>
<text text-anchor="start" x="252" y="-64.5" font-family="Times New Roman,serif" font-size="15.00">ackermann</text>
<polygon fill="none" stroke="black" points="328.5,-56.5 328.5,-79.5 652.5,-79.5 652.5,-56.5 328.5,-56.5"/>
<text text-anchor="start" x="484.5" y="-64.5" font-family="Times New Roman,serif" font-size="15.00">0 </text>
<polygon fill="none" stroke="black" points="11.5,-31.5 11.5,-54.5 84.5,-54.5 84.5,-31.5 11.5,-31.5"/>
<text text-anchor="start" x="40.5" y="-39.5" font-family="Times New Roman,serif" font-size="15.00">m </text>
<polygon fill="none" stroke="black" points="86.5,-31.5 86.5,-54.5 155.5,-54.5 155.5,-31.5 86.5,-31.5"/>
<text text-anchor="start" x="89.5" y="-39.5" font-family="Times New Roman,serif" font-size="15.00">INTEGER</text>
<polygon fill="none" stroke="black" points="157.5,-31.5 157.5,-54.5 239.5,-54.5 239.5,-31.5 157.5,-31.5"/>
<text text-anchor="start" x="186.5" y="-39.5" font-family="Times New Roman,serif" font-size="15.00">var </text>
<polygon fill="none" stroke="black" points="241.5,-31.5 241.5,-54.5 326.5,-54.5 326.5,-31.5 241.5,-31.5"/>
<text text-anchor="start" x="252" y="-39.5" font-family="Times New Roman,serif" font-size="15.00">ackermann</text>
<polygon fill="none" stroke="black" points="328.5,-31.5 328.5,-54.5 652.5,-54.5 652.5,-31.5 328.5,-31.5"/>
<text text-anchor="start" x="484.5" y="-39.5" font-family="Times New Roman,serif" font-size="15.00">0 </text>
<polygon fill="none" stroke="black" points="11.5,-6.5 11.5,-29.5 84.5,-29.5 84.5,-6.5 11.5,-6.5"/>
<text text-anchor="start" x="42.5" y="-14.5" font-family="Times New Roman,serif" font-size="15.00">n </text>
<polygon fill="none" stroke="black" points="86.5,-6.5 86.5,-29.5 155.5,-29.5 155.5,-6.5 86.5,-6.5"/>
<text text-anchor="start" x="89.5" y="-14.5" font-family="Times New Roman,serif" font-size="15.00">INTEGER</text>
<polygon fill="none" stroke="black" points="157.5,-6.5 157.5,-29.5 239.5,-29.5 239.5,-6.5 157.5,-6.5"/>
<text text-anchor="start" x="186.5" y="-14.5" font-family="Times New Roman,serif" font-size="15.00">var </text>
<polygon fill="none" stroke="black" points="241.5,-6.5 241.5,-29.5 326.5,-29.5 326.5,-6.5 241.5,-6.5"/>
<text text-anchor="start" x="252" y="-14.5" font-family="Times New Roman,serif" font-size="15.00">ackermann</text>
<polygon fill="none" stroke="black" points="328.5,-6.5 328.5,-29.5 652.5,-29.5 652.5,-6.5 328.5,-6.5"/>
<text text-anchor="start" x="484.5" y="-14.5" font-family="Times New Roman,serif" font-size="15.00">7 </text>
<polygon fill="none" stroke="black" points="8,-4 8,-133 655,-133 655,-4 8,-4"/>
</g>
</g>
</svg>
